<svg xmlns="http://www.w3.org/2000/svg" xmlns:xlink="http://www.w3.org/1999/xlink" width="238.001" height="238.001" viewBox="0 0 62.971 62.971" xmlns:v="https://vecta.io/nano"><g transform="translate(-87.199 -295.086)"><g fill="none" stroke="#0e1235"><circle cx="118.685" cy="326.571" r="29.898" stroke-width="3.175"/><circle cx="118.685" cy="326.571" r="19.923" stroke-width="2.646"/></g><g fill="#0e1235"><circle cx="118.685" cy="301.965" r="1.984"/><circle cx="118.685" cy="351.178" r="1.984"/><circle cx="94.078" cy="326.571" r="1.984"/><circle cx="143.291" cy="326.571" r="1.984"/><g transform="rotate(315)"><circle cx="-171.589" cy="314.857" r="1.984"/><circle cx="-122.383" cy="314.837" r="1.984"/><circle cx="-146.989" cy="339.464" r="1.984"/><circle cx="-146.983" cy="290.231" r="1.984"/></g></g><g fill="none" stroke="#0e1235"><path d="M102.201 337.763s11.509-13.547 36.433-11.192" stroke-width="2.117" stroke-miterlimit="10"/><g transform="rotate(335.832)"><ellipse cx="-23.521" cy="354.695" rx="3.307" ry="1.64" stroke-width="1.323"/><ellipse cx="-33.866" cy="356.083" rx="1.905" ry=".952" stroke-width="1.058"/></g></g><g fill="#0e1235"><path d="M127.283 336.229c1.402-.556 2.461-1.693 2.857-3.175.185-.661-.847-.952-1.032-.291-.291 1.085-1.058 2.011-2.117 2.434-.609.265-.344 1.27.291 1.032z"/><use xlink:href="#B"/><path d="M105.799 340.197a10.52 10.52 0 0 1 3.069-2.646c.582-.344.053-1.244-.529-.926-1.27.741-2.355 1.667-3.281 2.831-.423.529.317 1.27.741.741z"/><use xlink:href="#B" x="-19.315" y="4.895"/><use xlink:href="#B" x="-8.52" y="10.636"/><use xlink:href="#B" x="-7.594" y="8.255"/><use xlink:href="#B" x="-6.006" y="9.578"/></g><use xlink:href="#C" fill="#7989a3"/><use xlink:href="#D" fill="#60718d"/><use xlink:href="#E" fill="#7989a3"/><use xlink:href="#F" fill="#a9b3c1"/><use xlink:href="#G" fill="#3f425d"/><g fill="#0e1235"><use xlink:href="#H"/><use xlink:href="#I"/><circle cx="118.685" cy="301.965" r="1.984"/><circle cx="118.685" cy="351.178" r="1.984"/><circle cx="94.078" cy="326.571" r="1.984"/><circle cx="143.291" cy="326.571" r="1.984"/><g transform="rotate(315)"><circle cx="-171.589" cy="314.857" r="1.984"/><circle cx="-122.382" cy="314.837" r="1.984"/><circle cx="-146.989" cy="339.463" r="1.984"/><circle cx="-146.983" cy="290.231" r="1.984"/></g><use xlink:href="#J"/><use xlink:href="#K"/><use xlink:href="#L"/><use xlink:href="#M"/><use xlink:href="#M" x="-19.315" y="4.895"/><use xlink:href="#N"/><use xlink:href="#N" x="0.926" y="-2.382"/><use xlink:href="#N" x="2.514" y="-1.059"/></g><use xlink:href="#C" fill="#7989a3"/><use xlink:href="#D" fill="#60718d"/><use xlink:href="#E" fill="#7989a3"/><use xlink:href="#F" fill="#a9b3c1"/><use xlink:href="#G" fill="#3f425d"/><g fill="#0e1235"><use xlink:href="#H"/><use xlink:href="#I"/><circle cx="118.685" cy="301.965" r="1.984"/><circle cx="118.685" cy="351.178" r="1.984"/><circle cx="94.078" cy="326.571" r="1.984"/><circle cx="143.291" cy="326.571" r="1.984"/><g transform="rotate(315)"><circle cx="-171.589" cy="314.857" r="1.984"/><circle cx="-122.382" cy="314.837" r="1.984"/><circle cx="-146.989" cy="339.463" r="1.984"/><circle cx="-146.983" cy="290.231" r="1.984"/></g><use xlink:href="#J"/><use xlink:href="#K"/><use xlink:href="#L"/><use xlink:href="#M"/><use xlink:href="#M" x="-19.315" y="4.895"/><use xlink:href="#N"/><use xlink:href="#N" x="0.926" y="-2.382"/><use xlink:href="#N" x="2.514" y="-1.059"/></g></g><defs ><path id="B" d="M129.85 331.731c.688 0 .688-1.058 0-1.058s-.688 1.058 0 1.058z"/><path id="C" d="M114.716 338.372c-.767.344-1.085.82-1.085.952.079.079.635.159 1.429-.185.741-.344 1.058-.794 1.085-.926a.85.85 0 0 0-.37-.079c-.265-.026-.609.053-1.058.238z"/><path id="D" d="M118.685 298.261c-15.61 0-28.31 12.7-28.31 28.31s12.7 28.31 28.31 28.31 28.31-12.7 28.31-28.31-12.7-28.31-28.31-28.31zm16.007 9.499a2 2 0 0 1 2.805 0 2 2 0 0 1 0 2.805 2 2 0 0 1-2.805 0c-.767-.767-.767-2.011 0-2.805zm-16.007-7.779a2 2 0 0 1 1.984 1.984 2 2 0 0 1-1.984 1.984 2 2 0 0 1-1.984-1.984 1.98 1.98 0 0 1 1.984-1.984zm-18.785 7.779a2 2 0 0 1 2.805 0 2 2 0 0 1 0 2.805 2 2 0 0 1-2.805 0c-.794-.767-.794-2.011 0-2.805zm-5.821 20.796a2 2 0 0 1-1.984-1.984 2 2 0 0 1 1.984-1.984 2 2 0 0 1 1.984 1.984 1.98 1.98 0 0 1-1.984 1.984zm8.625 16.827a2 2 0 0 1-2.805 0 2 2 0 0 1 0-2.805 2 2 0 0 1 2.805 0c.767.767.767 2.011 0 2.805zm15.981 7.779a2 2 0 0 1-1.984-1.984 2 2 0 0 1 1.984-1.984 2 2 0 0 1 1.984 1.984 1.98 1.98 0 0 1-1.984 1.984zm18.812-7.779a2 2 0 0 1-2.805 0 2 2 0 0 1 0-2.805 2 2 0 0 1 2.805 0c.767.767.767 2.011 0 2.805zm5.794-20.796a2 2 0 0 1 1.984 1.984 2 2 0 0 1-1.984 1.984 2 2 0 0 1-1.984-1.984 1.98 1.98 0 0 1 1.984-1.984zm-24.606 23.23c-11.721 0-21.246-9.525-21.246-21.246s9.525-21.246 21.246-21.246 21.246 9.525 21.246 21.246c.026 11.721-9.525 21.246-21.246 21.246z"/><path id="E" d="M125.299 331.863c-.503 0-1.164.132-1.931.476-1.508.661-2.143 1.667-2.011 1.984.053.132.317.265.794.265.582.026 1.323-.132 2.037-.45s1.323-.767 1.693-1.217c.291-.37.37-.635.317-.767-.079-.159-.423-.291-.9-.291z"/><path id="F" d="M103.762 337.657c.423.582.9 1.111 1.376 1.64.9-1.085 1.958-1.984 3.175-2.699.582-.344 1.111.582.529.926-1.138.661-2.117 1.508-2.963 2.514 3.334 3.175 7.832 5.106 12.779 5.106 9.948 0 18.097-7.832 18.574-17.648-19.764-1.455-30.612 7.435-33.47 10.16zm6.773-1.032c-.688 0-.688-1.058 0-1.058s.688 1.058 0 1.058zm6.271 2.514c-.317.37-.767.714-1.296.952s-1.032.344-1.482.344c-.635 0-1.138-.238-1.349-.688-.106-.238-.212-.741.317-1.402.317-.37.767-.714 1.296-.952 1.296-.582 2.461-.423 2.831.344.106.265.212.767-.317 1.402zm4.524 3.228c-.688 0-.688-1.058 0-1.058.661 0 .661 1.058 0 1.058zm.926-2.381c-.688 0-.688-1.058 0-1.058.661 0 .661 1.058 0 1.058zm1.588 1.323c-.688 0-.688-1.058 0-1.058.661 0 .661 1.058 0 1.058zm-1.588-5.397h-.159c-.953-.026-1.64-.423-1.931-1.058-.529-1.191.609-2.805 2.672-3.731s4.022-.714 4.577.476c.291.635.106 1.402-.503 2.143-.503.609-1.27 1.191-2.17 1.587-.873.37-1.746.582-2.487.582zm7.911-2.858c-.397 1.482-1.455 2.619-2.858 3.175-.635.265-.9-.767-.291-1.032 1.058-.423 1.826-1.349 2.117-2.434.185-.661 1.191-.37 1.032.291zm-.317-1.323c-.688 0-.688-1.058 0-1.058s.688 1.058 0 1.058z"/><path id="G" d="M118.685 307.971c-10.266 0-18.6 8.334-18.6 18.6 0 3.387.926 6.562 2.487 9.287 1.402-1.296 4.048-3.466 8.017-5.53 5.371-2.778 14.314-5.821 26.67-4.948-.609-9.71-8.705-17.41-18.574-17.41z"/><path id="H" d="M118.685 295.086c-17.357 0-31.485 14.129-31.485 31.485s14.129 31.485 31.485 31.485 31.485-14.129 31.485-31.485-14.129-31.485-31.485-31.485zm0 59.796c-15.61 0-28.31-12.7-28.31-28.31s12.7-28.31 28.31-28.31 28.31 12.7 28.31 28.31-12.7 28.31-28.31 28.31z"/><path id="I" d="M118.685 305.325c-11.721 0-21.246 9.525-21.246 21.246s9.525 21.246 21.246 21.246 21.246-9.525 21.246-21.246c.026-11.721-9.525-21.246-21.246-21.246zm0 39.846c-4.948 0-9.446-1.958-12.779-5.106a10.85 10.85 0 0 1 2.963-2.514c.582-.344.053-1.244-.529-.926-1.217.714-2.275 1.614-3.175 2.699-.503-.529-.953-1.058-1.376-1.64 2.831-2.725 13.705-11.615 33.496-10.16-.503 9.816-8.652 17.648-18.6 17.648zm-8.096-14.817c-3.969 2.037-6.615 4.207-8.017 5.53-1.588-2.725-2.487-5.9-2.487-9.287 0-10.266 8.334-18.6 18.6-18.6 9.869 0 17.965 7.726 18.574 17.436-12.356-.926-21.299 2.143-26.67 4.921z"/><path id="J" d="M126.887 333.742c.609-.741.794-1.508.503-2.143-.529-1.191-2.514-1.402-4.577-.476s-3.201 2.54-2.672 3.731c.291.635.979 1.005 1.931 1.058h.159c.767 0 1.64-.212 2.461-.582.926-.397 1.693-.952 2.196-1.587zm-1.032-.82c-.37.45-.979.9-1.693 1.217s-1.455.476-2.037.45c-.476-.026-.714-.159-.794-.265-.132-.317.503-1.296 2.011-1.984.767-.344 1.429-.476 1.931-.476s.82.132.9.265c.053.132 0 .423-.317.794z"/><path id="K" d="M114.292 337.393c-.529.238-1.005.582-1.296.952-.529.635-.423 1.138-.317 1.402.212.45.714.688 1.349.688.45 0 .953-.106 1.482-.344s1.005-.582 1.296-.952c.529-.635.423-1.138.317-1.402-.37-.767-1.535-.9-2.831-.344zm.767 1.746c-.767.344-1.349.265-1.429.185 0-.132.291-.609 1.085-.952.423-.185.794-.265 1.058-.265.185 0 .317.026.37.079 0 .132-.317.609-1.085.952z"/><path id="L" d="M129.136 332.763c-.291 1.085-1.058 2.011-2.117 2.434-.635.238-.344 1.27.291 1.032 1.402-.556 2.461-1.693 2.858-3.175.159-.661-.847-.952-1.032-.291z"/><path id="M" d="M129.85 330.672c-.688 0-.688 1.058 0 1.058s.688-1.058 0-1.058z"/><path id="N" d="M121.33 341.309c-.688 0-.688 1.058 0 1.058.661 0 .661-1.058 0-1.058z"/></defs></svg>